<svg xmlns="http://www.w3.org/2000/svg" viewBox="0 0 32 32">
  <rect width="32" height="32" rx="4" fill="#0a0202"/>
  <rect x="4" y="4" width="10" height="2" rx="0.5" fill="#ff2020"/>
  <rect x="4" y="14" width="10" height="2" rx="0.5" fill="#ff2020"/>
  <rect x="4" y="24" width="10" height="2" rx="0.5" fill="#ff2020"/>
  <rect x="4" y="4" width="2" height="10" rx="0.5" fill="#1c0000"/>
  <rect x="12" y="4" width="2" height="10" rx="0.5" fill="#ff2020"/>
  <rect x="4" y="16" width="2" height="10" rx="0.5" fill="#1c0000"/>
  <rect x="12" y="16" width="2" height="10" rx="0.5" fill="#ff2020"/>
  <rect x="18" y="4" width="10" height="2" rx="0.5" fill="#ff2020"/>
  <rect x="18" y="14" width="10" height="2" rx="0.5" fill="#ff2020"/>
  <rect x="18" y="24" width="10" height="2" rx="0.5" fill="#ff2020"/>
  <rect x="18" y="4" width="2" height="10" rx="0.5" fill="#ff2020"/>
  <rect x="26" y="4" width="2" height="10" rx="0.5" fill="#ff2020"/>
  <rect x="18" y="16" width="2" height="10" rx="0.5" fill="#ff2020"/>
  <rect x="26" y="16" width="2" height="10" rx="0.5" fill="#ff2020"/>
</svg>
